<svg xmlns="http://www.w3.org/2000/svg" width="1200" height="700" viewBox="0 0 1200 700"><defs><style>.t{font:14px Arial,sans-serif;fill:#222}.s{font:12px Arial,sans-serif;fill:#555}.b{font:700 13px Arial,sans-serif;fill:#222}</style></defs><rect width="1200" height="700" fill="#f3f3f3"/><rect x="8" y="8" width="1184" height="684" rx="8" fill="#fff" stroke="#cfcfcf"/><rect x="8" y="8" width="1184" height="34" rx="8" fill="#f7f7f7" stroke="#d7d7d7"/><text x="28" y="30" style="font:700 18px Arial">MapSafe Python - Standalone Geoprivacy Tool</text><text x="1148" y="30" class="t">— □ ✕</text><rect x="10" y="44" width="355" height="646" fill="#fbfbfb" stroke="#e2e2e2"/><rect x="365" y="44" width="825" height="646" fill="#b8d5ea" stroke="#d7d7d7"/><text x="28" y="85" style="font:700 22px Arial">MapSafe Python</text><text x="28" y="110" style="font:15px Arial;fill:#666">Standalone geoprivacy controls</text><rect x="28" y="145" width="55" height="34" rx="6" fill="#efefef" stroke="#ccc"/><rect x="82" y="145" width="82" height="34" rx="6" fill="#efefef" stroke="#ccc"/><rect x="165" y="145" width="70" height="34" rx="6" fill="#fff" stroke="#7aa7ff"/><rect x="236" y="145" width="55" height="34" rx="6" fill="#efefef" stroke="#ccc"/><text x="46" y="166" class="t">Data</text><text x="100" y="166" class="t">Safeguard</text><text x="186" y="166" class="t" style="font-weight:700">Access</text><text x="252" y="166" class="t">Log</text><rect x="28" y="184" width="324" height="462" rx="8" fill="#fff" stroke="#d9d9d9"/><text x="45" y="214" class="b">Decrypt MapSafe file</text><rect x="50" y="236" width="260" height="40" rx="6" fill="#f7f7f7" stroke="#cfcfcf"/><text x="95" y="261" class="t">Choose encrypted file</text><text x="50" y="306" class="t">sample_points_masked.geojson.mapsafe.enc</text><rect x="50" y="342" width="260" height="40" rx="6" fill="#f7f7f7" stroke="#cfcfcf"/><text x="95" y="367" class="t">Choose key file</text><text x="50" y="412" class="t">sample_points_masked.geojson.mapsafe.key</text><rect x="50" y="458" width="260" height="40" rx="6" fill="#f7f7f7" stroke="#cfcfcf"/><text x="135" y="483" class="t">Decrypt file</text><text x="50" y="535" class="t" fill="#2f9c45">● Success: File decrypted successfully.</text><text x="28" y="675" class="t">Decrypted: sample_points_masked_decrypted.geojson</text><rect x="379" y="58" width="798" height="618" fill="#b6d5eb"/><path d="M660,185 L760,120 L835,135 L800,205 L700,226 Z" fill="#dde7cf" stroke="#b5c3a0"/><path d="M470,315 L545,275 L650,302 L642,420 L520,420 L455,355 Z" fill="#dde7cf" stroke="#b5c3a0"/><path d="M826,180 L870,158 L895,186 L864,217 Z" fill="#dde7cf" stroke="#b5c3a0"/><path d="M607,332 L630,317 L648,342 L621,360 Z" fill="#dde7cf" stroke="#b5c3a0"/><path d="M589,562 L640,540 L632,570 L575,584 Z" fill="#dde7cf" stroke="#b5c3a0"/><g fill="#2f76d0" stroke="#fff" stroke-width="1.3"><circle cx="505" cy="290" r="17"/><text x="498" y="296" font-size="13" fill="#fff">36</text><circle cx="635" cy="360" r="17"/><text x="628" y="366" font-size="13" fill="#fff">72</text><circle cx="543" cy="430" r="17"/><text x="536" y="436" font-size="13" fill="#fff">28</text><circle cx="780" cy="190" r="17"/><text x="775" y="196" font-size="13" fill="#fff">9</text><circle cx="865" cy="192" r="17"/><text x="858" y="198" font-size="13" fill="#fff">11</text><circle cx="785" cy="385" r="17"/><text x="778" y="391" font-size="13" fill="#fff">12</text><circle cx="465" cy="455" r="5"/><circle cx="468" cy="205" r="5"/><circle cx="700" cy="265" r="5"/><circle cx="995" cy="285" r="5"/></g><text x="740" y="168" class="t">Labasa</text><text x="690" y="197" class="s">Vanua Levu</text><text x="840" y="212" class="t">Taveuni</text><text x="480" y="310" class="t">Lautoka</text><text x="470" y="340" class="t">Nadi</text><text x="520" y="406" class="t">Sigatoka</text><text x="646" y="402" class="t" style="font-weight:700">Suva</text><text x="720" y="329" class="t">Levuka</text><text x="790" y="335" class="s" fill="#2f5bb7">Koro Sea</text><text x="594" y="570" class="t">Kadavu</text><text x="1030" y="480" class="t">Lau Group</text><rect x="1000" y="74" width="155" height="112" rx="6" fill="#fff" stroke="#cfcfcf"/><text x="1015" y="99" class="t">◉ OpenStreetMap</text><text x="1015" y="124" class="t">○ Carto Light</text><text x="1015" y="149" class="t">○ Esri Topo</text><line x1="1010" y1="159" x2="1145" y2="159" stroke="#ddd"/><text x="1015" y="179" class="t">☑ sample_points.geojson</text><rect x="383" y="60" width="36" height="70" rx="4" fill="#fff" stroke="#bbb"/><text x="397" y="88" style="font:700 24px Arial">+</text><line x1="386" y1="94" x2="416" y2="94" stroke="#ddd"/><text x="398" y="120" style="font:700 24px Arial">−</text><rect x="382" y="605" width="72" height="40" fill="#fff" stroke="#999"/><line x1="382" y1="625" x2="454" y2="625" stroke="#999"/><text x="390" y="620" class="s">50 km</text><text x="390" y="640" class="s">30 mi</text><text x="960" y="670" class="s" fill="#3579c7">Leaflet | © OpenStreetMap contributors</text></svg>