<svg xmlns="http://www.w3.org/2000/svg" width="1200" height="700" viewBox="0 0 1200 700"><defs><style>.t{font:14px Arial,sans-serif;fill:#222}.s{font:12px Arial,sans-serif;fill:#555}.b{font:700 13px Arial,sans-serif;fill:#222}</style></defs><rect width="1200" height="700" fill="#f3f3f3"/><rect x="8" y="8" width="1184" height="684" rx="8" fill="#fff" stroke="#cfcfcf"/><rect x="8" y="8" width="1184" height="34" rx="8" fill="#f7f7f7" stroke="#d7d7d7"/><text x="28" y="30" style="font:700 18px Arial">MapSafe Python - Standalone Geoprivacy Tool</text><text x="1148" y="30" class="t">— □ ✕</text><rect x="10" y="44" width="355" height="646" fill="#fbfbfb" stroke="#e2e2e2"/><rect x="365" y="44" width="825" height="646" fill="#b8d5ea" stroke="#d7d7d7"/><text x="28" y="85" style="font:700 22px Arial">MapSafe Python</text><text x="28" y="110" style="font:15px Arial;fill:#666">Standalone geoprivacy controls</text><rect x="28" y="145" width="55" height="34" rx="6" fill="#efefef" stroke="#ccc"/><rect x="82" y="145" width="82" height="34" rx="6" fill="#fff" stroke="#7aa7ff"/><rect x="165" y="145" width="70" height="34" rx="6" fill="#efefef" stroke="#ccc"/><rect x="236" y="145" width="55" height="34" rx="6" fill="#efefef" stroke="#ccc"/><text x="46" y="166" class="t">Data</text><text x="98" y="166" class="t" style="font-weight:700">Safeguard</text><text x="187" y="166" class="t">Access</text><text x="252" y="166" class="t">Log</text><rect x="28" y="184" width="324" height="470" rx="8" fill="#fff" stroke="#d9d9d9"/><text x="45" y="214" class="b">Geomasking</text><rect x="50" y="228" width="250" height="36" rx="6" fill="#f7f7f7" stroke="#cfcfcf"/><text x="80" y="251" class="t">Load GeoJSON / Shapefile / GeoPackage</text><rect x="42" y="300" width="274" height="152" rx="8" fill="#ffffff" stroke="#6fa8ff"/><text x="58" y="328" class="b">H3 hexagonal binning</text><text x="58" y="370" class="t">Resolution (0–15)</text><rect x="210" y="350" width="75" height="30" rx="4" fill="#fff" stroke="#bbb"/><text x="244" y="370" class="t">7</text><rect x="58" y="406" width="230" height="40" rx="6" fill="#f7f7f7" stroke="#cfcfcf"/><text x="126" y="431" class="t">Run H3 binning</text><rect x="50" y="490" width="250" height="34" rx="6" fill="#f7f7f7" stroke="#cfcfcf"/><text x="84" y="512" class="t">Encrypt last output/current layer</text><rect x="50" y="538" width="250" height="34" rx="6" fill="#f7f7f7" stroke="#cfcfcf"/><text x="84" y="560" class="t">Create local SHA-256 receipt</text><text x="28" y="675" class="t">H3 binning complete: sample_points_h3_r7.geojson</text><rect x="379" y="58" width="798" height="618" fill="#b6d5eb"/><path d="M660,185 L760,120 L835,135 L800,205 L700,226 Z" fill="#dde7cf" stroke="#b5c3a0"/><path d="M470,315 L545,275 L650,302 L642,420 L520,420 L455,355 Z" fill="#dde7cf" stroke="#b5c3a0"/><path d="M826,180 L870,158 L895,186 L864,217 Z" fill="#dde7cf" stroke="#b5c3a0"/><path d="M607,332 L630,317 L648,342 L621,360 Z" fill="#dde7cf" stroke="#b5c3a0"/><path d="M589,562 L640,540 L632,570 L575,584 Z" fill="#dde7cf" stroke="#b5c3a0"/><g fill="#74c7c9" fill-opacity="0.55" stroke="#4aa8a7" stroke-width="1"><polygon points="500,325 510,319 520,325 520,337 510,343 500,337"/><polygon points="520,325 530,319 540,325 540,337 530,343 520,337"/><polygon points="540,325 550,319 560,325 560,337 550,343 540,337"/><polygon points="560,325 570,319 580,325 580,337 570,343 560,337"/><polygon points="510,342 520,336 530,342 530,354 520,360 510,354"/><polygon points="530,342 540,336 550,342 550,354 540,360 530,354"/><polygon points="550,342 560,336 570,342 570,354 560,360 550,354"/><polygon points="570,342 580,336 590,342 590,354 580,360 570,354"/><polygon points="590,342 600,336 610,342 610,354 600,360 590,354"/><polygon points="690,165 700,159 710,165 710,177 700,183 690,177"/><polygon points="710,165 720,159 730,165 730,177 720,183 710,177"/><polygon points="730,165 740,159 750,165 750,177 740,183 730,177"/><polygon points="750,165 760,159 770,165 770,177 760,183 750,177"/><polygon points="770,165 780,159 790,165 790,177 780,183 770,177"/><polygon points="790,165 800,159 810,165 810,177 800,183 790,177"/><polygon points="835,182 845,176 855,182 855,194 845,200 835,194"/><polygon points="845,370 855,364 865,370 865,382 855,388 845,382"/><polygon points="620,560 630,554 640,560 640,572 630,578 620,572"/></g><text x="740" y="168" class="t">Labasa</text><text x="690" y="197" class="s">Vanua Levu</text><text x="840" y="212" class="t">Taveuni</text><text x="480" y="310" class="t">Lautoka</text><text x="470" y="340" class="t">Nadi</text><text x="520" y="406" class="t">Sigatoka</text><text x="646" y="402" class="t" style="font-weight:700">Suva</text><text x="720" y="329" class="t">Levuka</text><text x="790" y="335" class="s" fill="#2f5bb7">Koro Sea</text><text x="594" y="570" class="t">Kadavu</text><text x="1030" y="480" class="t">Lau Group</text><rect x="1000" y="74" width="160" height="120" rx="6" fill="#fff" stroke="#cfcfcf"/><text x="1015" y="99" class="t">◉ OpenStreetMap</text><text x="1015" y="124" class="t">○ Carto Light</text><text x="1015" y="149" class="t">○ Esri Topo</text><line x1="1010" y1="159" x2="1145" y2="159" stroke="#ddd"/><text x="1015" y="179" class="t">☐ sample_points.geojson</text><text x="1015" y="198" class="t">☑ sample_points_h3_r7</text><text x="1015" y="216" class="s">H3 Hex Bin (res 7)</text><rect x="383" y="60" width="36" height="70" rx="4" fill="#fff" stroke="#bbb"/><text x="397" y="88" style="font:700 24px Arial">+</text><line x1="386" y1="94" x2="416" y2="94" stroke="#ddd"/><text x="398" y="120" style="font:700 24px Arial">−</text><rect x="382" y="605" width="72" height="40" fill="#fff" stroke="#999"/><line x1="382" y1="625" x2="454" y2="625" stroke="#999"/><text x="390" y="620" class="s">50 km</text><text x="390" y="640" class="s">30 mi</text><text x="960" y="670" class="s" fill="#3579c7">Leaflet | © OpenStreetMap contributors</text></svg>